<?xml version="1.0" encoding="utf-8"?>
<!-- Generator: Adobe Illustrator 24.3.0, SVG Export Plug-In . SVG Version: 6.00 Build 0)  -->
<svg version="1.1" id="Layer_1" xmlns="http://www.w3.org/2000/svg" xmlns:xlink="http://www.w3.org/1999/xlink" x="0px" y="0px"
	 viewBox="0 0 512 512" style="enable-background:new 0 0 512 512;" xml:space="preserve">
<style type="text/css">
	.st0{fill:#FFFFFF;}
	.st1{fill:#231F20;}
	.st2{font-family:'HelveticaNeueLT-ExtBlackCond';}
	.st3{font-size:15.6027px;}
	.st4{fill:#000001;}
	.st5{fill:#EC1C24;}
	.st6{fill:#F58220;}
	.st7{fill:url(#SVGID_1_);}
	.st8{fill:url(#SVGID_2_);}
	.st9{fill:url(#SVGID_3_);}
	.st10{fill:url(#SVGID_4_);}
	.st11{fill:url(#SVGID_5_);}
	.st12{fill:url(#SVGID_6_);}
	.st13{fill:url(#SVGID_7_);}
	.st14{fill:#FFFBC8;}
</style>
<g>
	
		<ellipse transform="matrix(0.983 -0.1834 0.1834 0.983 -26.18 47.341)" class="st0" cx="242.84" cy="165.2" rx="172.76" ry="132.51"/>
	<path class="st1" d="M212.56,88.59c1.43,11.04-3.56,20.3-11.4,20.66c-7.84,0.36-15.67-8.91-17.1-19.95
		c-1.43-11.4,3.92-20.3,11.75-20.66C203.65,68.29,211.13,77.2,212.56,88.59z"/>
	<path class="st1" d="M331.53,76.84c0.71,9.97-3.92,17.45-10.69,16.74c-6.77-0.71-13.18-9.26-14.25-19.24
		c-0.71-9.97,4.27-17.1,11.4-16.39C324.41,58.67,330.46,66.87,331.53,76.84z"/>
	<path class="st1" d="M381.04,106.4c-1.43-1.07-2.85,0.36-2.14,1.78c3.56,7.48,3.21,18.52-7.84,18.52
		c-12.47,0-29.21-16.03-52.01-16.03c-16.03,0-33.84,11.04-35.26,35.62c-10.69-16.39-29.21-27.43-52.01-27.43
		c-41.32,0-70.53,50.23-105.44,50.23c-14.96,0-19.59-13.54-16.03-23.51c0.36-1.78-1.43-2.85-2.49-1.78
		c-11.75,9.26-16.03,25.29-16.03,40.96c0,42.03,42.74,77.65,99.74,77.65c54.14,0,100.1-32.77,102.23-80.15
		c11.04,16.03,29.92,25.29,48.44,25.29c30.63,0,59.13-21.73,59.13-58.06C400.99,132.41,392.09,112.82,381.04,106.4z"/>
	<path class="st1" d="M186.91,0.97c-22.44-0.71-42.03,20.3-43.46,46.66c0,1.43,0,2.85,0,4.27c0,1.07,0.71,1.78,1.78,1.78
		c0,0,0,0,0.36,0c0.71,0,1.78-0.71,1.78-1.42c4.99-21.37,24.93-36.33,47.38-35.62c4.99,0.36,10.33,1.07,14.96,3.21
		c1.43,0.71,2.85,0,3.92-1.43c1.07-1.43,1.07-3.56-0.36-4.63C205.79,5.95,196.53,1.32,186.91,0.97z"/>
	<path class="st1" d="M342.57,32.67c-0.36-1.43-0.71-2.49-1.07-3.56c-3.92-11.75-11.4-21.02-20.66-26
		c-6.77-3.56-13.89-3.92-20.3-1.78c-6.77,2.14-12.11,7.48-15.67,14.6c-0.71,1.43-0.36,3.21,1.07,4.27c1.07,1.07,2.85,1.07,4.28,0
		c2.85-2.14,5.7-3.56,8.9-4.63c15.67-5.34,32.42,2.14,40.25,17.81c0.36,0.71,1.07,1.07,1.78,1.07c0.36,0,0.36,0,0.71,0
		C342.57,34.81,342.93,33.74,342.57,32.67z"/>
	<text transform="matrix(1 0 0 1 428.2573 404.8029)" class="st1 st2 st3">®</text>
	<path class="st4" d="M420.94,331.53c0.36,0.36,0.71,0.71,1.07,1.07c1.07,1.07,1.78,1.07,2.49-0.36c0.36-0.71,2.49-7.48,3.21-10.69
		c0.71-2.49,3.92-13.54,3.92-14.25c0.36-1.07,0-1.07-0.71-1.78c-1.78-2.14-7.12-6.77-11.75-9.26c-18.17-9.97-29.21-1.43-33.48,5.7
		c-7.48-11.4-25.29-12.82-37.4-2.49c0.36-4.28,0.71-18.17,1.07-24.22c0-1.43-0.36-2.85-1.43-3.92c-0.71-0.71-1.42-1.43-2.14-2.14
		c-5.7-4.28-13.89-6.77-22.8-1.78c-0.36,0.36-3.56,1.78-7.12,3.92c0-2.49,0-5.7,0-6.77c0-0.71,0-1.43,0-1.43
		c0-5.7-4.27-8.9-8.19-8.9c-2.49,0-4.63,1.07-6.05,2.14c-6.77,4.27-22.8,14.96-30.63,18.88c-1.07,0.36-1.78,1.07-2.49,1.43
		c-1.07,0.71-2.49,1.43-2.85,1.43c-1.07,0-4.63-0.71-8.19-1.78c-4.27-1.07-28.5-6.41-32.41-7.12c-2.14-0.36-3.56-0.36-4.63-0.36
		c-1.43,0-4.99,0-7.84,3.21c-1.07,1.43-2.49,3.56-2.14,7.13l0.36,2.14c0.36,1.78,0.36,4.27,0.71,6.77
		c0.36,3.56,1.07,11.04,1.07,17.45c0,1.07,0,2.14,0,3.21c-2.85-3.21-8.9-2.49-14.25,1.07c-1.07,0.71-2.14,1.43-3.21,2.14
		c-4.28,3.21-7.84,4.99-11.75,5.7c-3.56,0.71-6.77,0-8.91,1.78c-0.36,0.36-1.07,1.07-1.07,1.78c-0.71,1.43-0.71,2.49-0.36,4.27
		c0,0.36,0.36,0.71,0.36,1.43c0.71,2.14,2.14,4.63,3.21,7.13c1.78,3.56,3.56,7.48,4.99,9.62c0.36,0.71,0.71,1.07,1.07,1.07
		c-3.21,1.43-6.41,4.99-7.48,6.41c-1.43-0.71-2.85-0.36-4.99,1.07c-2.49,1.78-6.77,3.56-8.91,5.34
		c-2.85-22.8-29.21-34.91-64.83-2.85c-4.99,4.63-8.9,8.9-11.04,11.75c-1.78,2.14-1.43,3.21,0,5.34c1.07,1.78,1.43,11.04,1.07,18.88
		c-1.07,26.72-2.85,74.09-3.92,98.67c-0.36,6.41-1.78,16.03,7.12,21.02c6.77,3.92,13.18,0.36,20.66-5.34
		c4.99-3.92,14.25-11.75,14.25-11.75c0-1.43,0-3.21,0-4.63c0-2.49,0-4.99,0-6.41c0.36-6.05,0.71-17.81,1.43-27.07
		c0-2.49,0.36-4.63,0.36-6.77c6.06-5.7,13.54-12.82,19.24-20.66c-0.71,11.4-1.43,36.69-1.78,37.76c2.49,1.78,4.99,3.56,7.12,5.34
		c10.33-7.48,20.3-14.25,30.63-20.31c0.36-4.99,0.36-9.62,0.71-14.6c0.71,1.07,1.78,2.14,2.85,2.85c3.21,2.49,7.48,3.21,12.11,2.49
		c6.41-1.07,12.11-4.63,15.32-7.84c7.84-4.27,16.03-8.19,23.87-11.4c4.63-2.14,6.06-2.85,6.06-5.7c0-0.36,0-0.36,0-0.71
		c2.14,1.07,4.63,1.43,6.77,1.43c1.07,0,2.14,0,3.56-0.36c0.71,3.92,7.13,19.24,28.14,21.73c9.62,1.07,17.1-0.36,22.8-3.56
		c1.07-0.71,2.14-1.43,2.85-2.14c11.4-8.91,11.04-24.93,11.4-32.77c0.36,0,5.34,6.06,16.03,2.49c4.99-1.43,8.55-5.7,12.82-8.91
		c4.63,4.28,12.11,7.13,19.23,7.13c6.06,0,12.11-2.14,19.59-7.84c3.56,2.85,14.25,10.69,26.72,7.48c3.92-1.07,6.77-2.85,8.9-5.34
		c4.99-5.7,7.13-13.54,6.06-23.87c-0.71-8.91-4.63-18.52-7.48-26.72c-2.49-6.41-3.56-9.97-4.28-12.11
		C416.31,329.04,417.38,328.68,420.94,331.53z M263.5,320.13c-3.21-4.27-6.77-5.34-10.33-5.7c-1.07,0-2.49,0-3.92,0
		c4.63-3.92,9.62-8.55,12.82-11.04c6.41-5.34,8.55-6.06,9.26-6.41c0.36,0,1.78,0,4.28,0.71c2.49,0.71,5.7,1.43,8.9,2.49
		C275.61,303.75,266.34,311.94,263.5,320.13z"/>
	<path class="st5" d="M306.6,261.71c-7.48,4.99-23.51,15.32-31.35,19.24c-7.84,4.27-6.41,4.63-18.52,1.78
		c-4.99-1.07-28.5-6.41-31.7-6.77c-5.34-0.71-6.77-0.36-6.77,2.14c0.36,2.14,0.71,5.34,1.07,8.9c0.36,3.21,1.07,10.69,1.07,17.81
		c0,2.85,0.36,5.7,0.36,7.84c0,3.92-0.36,7.12,1.43,8.9c0.36,0.71,1.07,1.07,2.14,1.07c3.56,0.71,9.62-4.63,13.54-8.19
		c6.41-5.34,14.96-12.82,19.59-17.1c6.77-5.34,9.97-7.12,12.47-7.84c0,0,1.78-0.36,7.12,0.71c3.21,0.71,6.77,1.78,11.04,2.85
		c9.97,2.85,17.1,4.99,20.31,4.27c3.56-0.71,2.49-5.34,2.14-9.26c-0.36-2.85-0.71-6.77-0.71-11.4c-0.36-6.77,0-14.25,0-14.96
		C309.8,260.29,308.38,260.64,306.6,261.71z"/>
	<path class="st6" d="M213.63,404.55c-0.36,0.36-1.07,0.71-1.43,1.07c-0.36,0.36-0.36,0.36-0.36,0.71s0.36,1.43,0.36,1.78
		c-1.43,1.07-2.14,1.78-2.85,1.78c-2.14,0.36-1.78-2.49-1.78-4.28c0.36-7.48,2.85-61.62,2.85-61.62s-0.71-1.42-1.43-1.07
		c-2.49,1.43-10.69,7.84-13.54,9.97c-0.36,0.36-2.14,49.16-3.21,66.97c0,0.36-1.07-1.43-1.07-0.71c-0.36,2.14,0,7.84,3.56,9.62
		c1.07,0.71,2.85,0.71,4.99,0.36c1.07-0.36,2.49-0.71,3.56-1.43c6.05-3.56,10.33-11.4,10.69-13.89
		C213.63,410.97,213.63,405.98,213.63,404.55C213.98,404.55,213.98,404.55,213.63,404.55z"/>
	<path class="st6" d="M213.63,325.12c1.43-10.33-5.34-9.62-6.77-8.9c-0.71,0.36-1.07,1.78-1.78,2.14c-1.78,1.07-3.92,2.49-6.06,4.28
		c-8.55,6.41-13.89,4.63-13.89,4.63c2.14,1.78,3.21,4.63,4.99,7.13l-0.36,0.36c1.78,2.85,6.06,7.12,12.11,5.7
		C208.28,339.37,212.56,331.53,213.63,325.12z"/>
	<path class="st6" d="M187.98,355.75c-0.36-0.36-1.07,0-1.07,0c-1.43,0.71-3.21,2.85-5.7,5.7c-5.7,6.77-6.05,14.25-7.12,18.88
		c-0.36-0.71-0.71-1.43-0.71-2.14c0.36-4.28,0.71-8.9,1.07-13.18c-0.36-0.36-0.71-0.71-1.07-1.07c-4.28,3.56-8.55,7.48-12.82,11.4
		c0,6.06-0.71,13.89-0.71,17.81c-1.42,20.66-2.85,41.32-4.27,61.62c0.36,0.36,0.71,0.71,1.07,0.71c4.99-3.56,9.97-7.12,14.6-10.33
		c0.71-12.82,1.43-25.65,1.78-38.47c0.71-16.39,9.62-28.5,14.25-31.7c0,0,0-1.43,0.36-3.56c0.36-3.56,1.07-12.47,1.43-15.32
		C189.05,356.46,188.69,356.11,187.98,355.75z"/>
	<path class="st6" d="M267.06,382.82c0,0-1.07,0.71-1.78,0.71c-0.71,0.36-0.71,0.71-0.71,0.71c0,0.36,0.71,1.42,0.71,1.42
		c-1.43,0.71-2.14,1.43-2.85,1.43c-0.71,0-1.07-0.36-1.43-0.71c-0.36-0.71-0.36-1.43-0.36-5.7c0.36-8.55,0.71-20.66,1.07-21.02
		c0.36-3.92,0.36-7.48,0.71-10.33c0-2.14,0-3.92,0-5.7c0-1.07-0.36-1.78-0.36-2.85c-1.07-8.55-4.63-14.6-10.69-14.6
		c-1.07,0-1.78,1.43-3.2,2.14c-5.34,2.14-9.62,11.04-11.76,18.52c0.36-2.49-0.71,0.71-0.71-1.78c0-3.92,0.71-13.54,0.71-13.54
		c-0.36-0.36-0.71-0.71-1.07-0.71c-0.36-0.36-0.36-0.36-1.07,0c-2.85,1.78-8.55,6.41-12.47,8.19c0,7.13-0.71,17.46-1.07,20.66
		c-0.71,14.25-4.28,58.06-4.28,58.06l1.07,1.07c4.99-2.49,9.97-4.99,14.96-7.48c0.71-14.96,1.43-29.92,2.14-45.24
		c0.36-7.13,5.7-12.47,9.26-13.89c0.71-0.36,2.14-0.36,2.85,1.78c-0.36,11.04-1.07,23.15-1.43,32.42c-0.36,2.49-0.36,4.63-0.36,6.77
		c0,0.36,0,0.71,0,1.07c0,0.36-1.07,1.07-1.07,1.78c0,0.36,0,1.07,0.36,1.78c0.36,2.85,2.14,7.48,8.19,7.48
		c1.07,0,2.49-0.36,3.92-0.71c6.06-2.49,10.69-9.62,10.69-11.75C266.7,388.52,267.06,382.82,267.06,382.82z"/>
	<path class="st6" d="M418.45,372.85c1.07-14.25-8.91-29.92-11.75-40.61c-1.07-3.92-1.07-7.48-0.36-10.33
		c0.71-1.43,1.43-2.49,2.14-3.21c4.27-3.21,9.62,1.43,9.97,1.78c0.36-0.36,2.49-7.48,2.85-8.9c0,0-0.71-1.07-2.14-2.14
		c-1.43-1.43-3.21-2.85-4.27-3.56c-1.78-0.71-4.28-1.43-6.77-1.43c-4.63,0-8.55,1.78-11.4,4.63c-7.84,8.19-7.48,20.66,1.43,37.4
		c0.36,0.71,0,1.78,0.71,2.49c4.28,7.84,8.55,17.46,5.34,24.22c-1.07,2.85-3.92,3.92-7.84,2.85c-5.7-1.78-13.89-11.4-13.89-11.75
		c-1.07,1.43-6.05,6.77-11.04,8.9c-0.36,0-0.36-0.71-0.36-1.43c0,0-2.14,1.07-4.63,0.71c-3.56-0.36-7.13-4.63-7.48-14.6
		c0-1.43,0-2.85,0-3.92c9.26-1.07,16.03-2.85,23.87-4.99c1.07-4.27,3.21-16.03,2.14-26.72c-0.71-6.77-1.78-11.04-4.28-13.89
		c-2.85-3.56-7.12-4.99-10.33-5.34c-1.07,0-4.63,0-4.28,0c0.71,0.36,4.63,1.07,4.28,1.07c-2.85-0.36-6.06,0.36-9.62,2.14
		c-13.89,7.12-19.59,36.69-15.32,57.71c0.36,2.14,0.36,3.56,0.71,4.99c-4.63,4.28-9.26,8.19-10.69,4.28
		c-0.36-0.71-0.36-1.78-0.71-2.85c0-1.07,0-3.92,0.36-7.48c0.36-4.28,3.92-76.23,4.63-86.56c0,0-0.71-0.36-1.07-0.71
		c-0.36-0.36-0.71-0.36-1.07-0.36c-1.07-0.36-2.85-0.71-3.56-0.36c-5.34,0.36-9.26,4.63-9.62,13.18
		c-1.78,27.07-3.21,54.5-4.99,81.57c0,0.36-2.14,10.69,2.49,16.74c1.43,1.78,3.56,3.21,6.41,3.92c1.78,0.36,3.92,0.36,6.05-0.36
		c7.13-2.49,13.18-8.55,15.32-12.47c1.07,2.14,3.56,4.63,6.06,6.41c4.28,3.56,9.97,4.63,16.03,3.21c4.63-1.43,8.55-4.63,12.47-8.19
		c3.92,3.21,11.4,8.91,17.46,9.62c6.05,1.07,10.69-1.07,13.54-4.27C417.02,381.04,418.09,377.12,418.45,372.85z M362.17,326.19
		c3.21-8.91,8.55-9.62,9.26-1.78c0.36,4.27,0.36,9.97-0.71,16.74c0,0.36,0,0.36,0,0.71c0,0-6.06,2.49-12.11,2.49
		C358.6,339.37,360.03,331.89,362.17,326.19z M311.94,307.66c0,0-0.36,0-0.36,0.36s-0.36,0.71-0.36,0.71
		c-8.9-1.78-12.11,4.28-12.82,6.06c-2.85-3.21-9.62-3.92-16.03,1.43c-2.14,1.78-3.92,3.56-5.7,6.41
		c-4.99,7.84-7.84,19.95-8.19,32.06c-0.36,13.89,0.36,23.87,3.21,30.63c2.85,7.13,7.48,10.69,12.47,11.04
		c9.62,0.71,11.75-8.19,11.75-7.12c0,13.89-0.36,22.08-7.12,24.58c-7.48,2.49-14.25-3.21-17.1-7.12c0,0-2.85,3.21-4.28,4.63
		c-1.43,2.14-1.78,3.56,0,6.06c5.34,7.48,14.96,10.69,23.51,9.62c2.85-0.36,6.06-1.43,8.91-3.56c6.41-4.99,8.9-10.69,9.26-30.99
		c0-4.99,0-10.33,0.36-16.39c0.71-19.24,2.14-46.31,2.85-56.99c0.36-5.7,0.71-9.62,0.71-9.62
		C313.01,308.73,312.3,308.02,311.94,307.66z M295.2,371.07c-0.36,2.49-0.71,4.99-1.43,7.12c-5.34,12.47-11.04,1.07-10.69-22.8
		c0.36-13.89,3.92-24.58,7.13-27.78c2.14-2.14,6.41-4.28,7.12,2.85C297.33,337.23,295.55,367.15,295.2,371.07z"/>
	<path class="st6" d="M154.49,373.56c0-3.92-0.36-7.48-1.07-10.33c-2.49-9.97-8.55-14.96-16.74-14.96c-6.41,0-12.47,3.56-17.81,7.12
		c-7.12,4.63-13.54,11.4-18.17,16.39c-0.36,0.36,1.78,0.71,1.07,14.96c-1.43,28.5-3.56,84.07-4.99,105.44
		c0,0.71-1.07,0.71-1.43,1.78c0,0.36,0,0.71-0.36,1.07c0,1.07,0,3.56,0.71,4.99c0.71,0.71,1.43,1.07,2.85,0.71
		c1.78-0.71,3.56-2.14,5.7-4.28c3.92-2.85,8.9-7.12,8.9-7.12c0-1.07,0-7.48,0-9.97c0.36-8.91,1.43-24.22,2.14-35.98
		C136.68,429.84,154.85,404.55,154.49,373.56z M129.2,410.25c-3.56,8.91-8.19,13.89-12.11,17.1c0.36-7.48,1.78-47.38,2.14-55.57
		c3.21-3.56,7.12-6.05,9.97-6.41C138.11,365.73,136.33,391.73,129.2,410.25z"/>
	
		<linearGradient id="SVGID_1_" gradientUnits="userSpaceOnUse" x1="5.6155" y1="6.9597" x2="6.996" y2="6.9597" gradientTransform="matrix(42.6767 151.3318 -150.5083 39.7876 972.1473 -870.3141)">
		<stop  offset="0" style="stop-color:#FFEA00"/>
		<stop  offset="0.4945" style="stop-color:#FFEA00"/>
		<stop  offset="0.7088" style="stop-color:#FFDD00"/>
		<stop  offset="0.8681" style="stop-color:#FFCB05"/>
		<stop  offset="1" style="stop-color:#FFD400"/>
	</linearGradient>
	<path class="st7" d="M211.84,405.98c-0.36,0.36-0.71,0.71-0.71,0.71c-0.71,0.71-2.14,1.78-2.85,2.14c-0.36,0.36-1.07,0.36-1.43,0
		c-1.07-0.36-0.71-2.85-0.71-4.27c0.36-7.48,2.85-61.62,2.85-61.62s-11.4,6.41-14.96,8.9c-0.36,0.36-2.14,49.16-3.21,66.97
		c-0.36,3.92,0.71,7.13,2.49,8.55c2.14,1.42,5.34,1.07,8.55-0.71c6.05-3.56,10.33-11.4,10.69-13.89c0-3.21,0.36-6.77,0.36-7.13
		C212.2,405.62,212.2,405.62,211.84,405.98z"/>
	
		<linearGradient id="SVGID_2_" gradientUnits="userSpaceOnUse" x1="5.6089" y1="6.9713" x2="6.9894" y2="6.9713" gradientTransform="matrix(41.0587 145.5943 -144.802 38.2791 958.5309 -826.2004)">
		<stop  offset="0" style="stop-color:#FFEA00"/>
		<stop  offset="0.4945" style="stop-color:#FFEA00"/>
		<stop  offset="0.7088" style="stop-color:#FFDD00"/>
		<stop  offset="0.8681" style="stop-color:#FFCB05"/>
		<stop  offset="1" style="stop-color:#FFD400"/>
	</linearGradient>
	<path class="st8" d="M212.2,320.49c-0.36-2.14-1.07-3.56-2.14-4.27c-1.43-0.71-3.56-0.36-6.41,1.07c-1.78,1.07-3.92,2.49-6.06,4.28
		c-8.55,6.41-13.89,4.63-13.89,4.63c2.14,1.78,3.21,4.63,4.99,7.12c1.78,3.21,5.34,7.48,11.75,6.06
		C207.93,337.94,212.91,327.25,212.2,320.49z"/>
	
		<linearGradient id="SVGID_3_" gradientUnits="userSpaceOnUse" x1="5.6243" y1="6.9277" x2="7.0049" y2="6.9277" gradientTransform="matrix(46.6205 164.4173 -164.4173 46.6205 1007.7925 -985.9127)">
		<stop  offset="0" style="stop-color:#FFEA00"/>
		<stop  offset="0.4945" style="stop-color:#FFEA00"/>
		<stop  offset="0.7088" style="stop-color:#FFDD00"/>
		<stop  offset="0.8681" style="stop-color:#FFCB05"/>
		<stop  offset="1" style="stop-color:#FFD400"/>
	</linearGradient>
	<path class="st9" d="M180.14,360.38c0,0.36-0.36,0.36-0.36,0.36c-3.92,4.99-5.7,10.69-7.84,22.08c0.36-6.41,1.07-12.47,1.43-18.88
		c-4.63,3.56-9.62,6.77-14.25,10.33c0,6.05-0.71,13.89-0.71,17.81c-1.07,21.02-2.14,41.68-3.21,62.69
		c4.99-3.56,9.97-7.12,14.6-10.33c0.71-12.82,1.43-25.65,2.14-38.47c0.71-16.39,9.62-28.5,14.25-31.7c0,0,0-1.43,0.36-3.56
		c0.36-3.56,1.07-12.47,1.42-15.32C187.98,355.04,184.06,355.75,180.14,360.38z"/>
	
		<linearGradient id="SVGID_4_" gradientUnits="userSpaceOnUse" x1="5.6113" y1="6.8832" x2="6.9919" y2="6.8832" gradientTransform="matrix(43.1044 152.8491 -152.0173 40.1863 1004.5166 -892.0909)">
		<stop  offset="0" style="stop-color:#FFEA00"/>
		<stop  offset="0.4945" style="stop-color:#FFEA00"/>
		<stop  offset="0.7088" style="stop-color:#FFDD00"/>
		<stop  offset="0.8681" style="stop-color:#FFCB05"/>
		<stop  offset="1" style="stop-color:#FFD400"/>
	</linearGradient>
	<path class="st10" d="M265.28,383.54c-0.71,0.36-2.85,1.78-3.21,1.78c-0.71,0.36-1.43,0.36-2.14,0c-1.07-0.71-0.71-2.85-0.71-4.27
		c0-0.36,0-1.07,0-1.78c0.36-8.55,0.71-20.66,1.07-21.02c0.36-3.92,0.36-7.48,0.71-10.33c0-2.14,0-3.92,0-5.7
		c0-1.07,0-1.78-0.36-2.85c-1.07-7.84-4.28-13.54-9.62-13.54c-1.07,0-2.49,0.36-4.27,0.71c-4.63,1.78-8.55,9.26-11.04,16.39
		c0,0.36-1.07,2.85-1.43,3.92c-0.36,1.07-0.36,0.71-0.36,0c0.36-4.99,0.71-14.25,0.71-16.39c0-0.36,0-0.36-0.36-0.36
		c-1.07,0.71-2.85,1.43-3.56,1.78c-4.63,2.49-12.11,6.41-12.11,6.41c1.43,1.43,1.43,4.99,1.07,8.19c-0.36,4.99-0.71,9.62-0.71,11.4
		c-0.71,16.03-3.21,59.13-3.21,59.13c4.99-2.49,9.97-4.99,14.96-7.48c0.71-14.96,1.43-29.92,2.14-45.24
		c0.36-7.13,5.7-12.47,9.26-13.89c0.71-0.36,2.14-0.36,2.85,1.78c-0.36,11.04-1.07,23.15-1.43,32.42c-0.36,2.49-0.36,4.63-0.36,6.77
		c0,0.36,0,0.71,0,1.07c-0.36,3.92,0.71,7.48,2.49,8.9c2.14,2.14,5.34,2.14,8.55,1.07c6.06-2.49,10.69-9.62,10.69-11.76
		C264.92,388.17,265.28,384.96,265.28,383.54C265.63,383.54,265.63,383.54,265.28,383.54z"/>
	
		<linearGradient id="SVGID_5_" gradientUnits="userSpaceOnUse" x1="5.6714" y1="6.5392" x2="7.052" y2="6.5392" gradientTransform="matrix(51.8018 184.2943 -182.6902 46.1367 1229.5992 -1147.3662)">
		<stop  offset="0" style="stop-color:#FFEA00"/>
		<stop  offset="0.4945" style="stop-color:#FFEA00"/>
		<stop  offset="0.7088" style="stop-color:#FFDD00"/>
		<stop  offset="0.8681" style="stop-color:#FFCB05"/>
		<stop  offset="1" style="stop-color:#FFD400"/>
	</linearGradient>
	<path class="st11" d="M416.67,362.88c-0.36-1.78-0.71-3.21-1.43-4.99c-4.28-12.82-12.82-27.78-10.33-35.98
		c0.36-1.78,1.42-3.21,2.49-3.92c4.28-3.21,9.62,1.43,9.97,1.78c0.36-0.71,3.21-9.26,3.21-9.26c-2.49-2.85-7.12-6.77-13.54-6.77
		c-4.63,0-8.55,1.78-11.4,4.63c-6.06,6.06-7.12,14.96-3.56,26c2.85,8.55,10.69,21.73,11.75,29.92c0.36,2.85,0.36,5.7-0.71,7.84
		c-1.07,2.85-3.92,3.92-7.84,2.85c-5.7-1.78-13.89-11.75-13.89-12.11c-2.14,2.49-15.67,18.17-21.73,3.21
		c-1.78-4.28-1.78-9.97-1.78-13.54c9.26-1.07,16.03-2.85,23.87-4.99c1.43-6.06,4.99-28.14-1.78-38.47
		c-2.49-3.92-6.77-6.06-11.4-6.06c-2.85-0.36-6.06,0.36-9.62,2.14c-13.89,7.12-19.59,36.69-15.32,57.71
		c0.36,1.78,0.36,3.56,0.71,4.99c-4.63,4.27-9.26,8.19-10.69,4.27c-0.36-0.71-0.36-1.78-0.36-2.85c0-1.07,0-3.92,0.36-7.48
		c0.36-4.63,4.63-85.85,4.63-85.85c-0.36,0-0.71-0.36-1.07-0.36c-7.84-2.14-13.89,0.36-14.6,11.04
		c-1.43,26.36-2.85,52.36-3.92,78.72c0,4.63-2.14,17.46,4.27,22.09c3.21,2.14,7.13,2.14,10.69,0.71c2.14-1.07,4.27-2.49,6.41-3.92
		c4.99-3.92,7.84-8.19,7.84-8.19c0,0.36,0.36,0.36,0.36,0.36c2.14,3.21,6.41,7.48,10.69,8.9c1.78,0.71,3.92,0.71,5.7,0.71
		c7.13,0.36,12.47-4.28,17.81-8.55c3.92,3.56,9.62,7.48,14.25,8.9c7.84,2.49,13.89,0.36,17.1-3.21
		C418.09,377.48,417.73,367.86,416.67,362.88z M360.74,325.12c3.21-8.9,8.55-9.62,9.26-1.78c0.36,4.28,0.36,9.97-0.71,16.74
		c0,0.36,0,0.36,0,0.71c0,0-6.05,2.49-12.11,2.49C357.18,338.3,358.6,330.82,360.74,325.12z"/>
	
		<linearGradient id="SVGID_6_" gradientUnits="userSpaceOnUse" x1="5.6171" y1="6.827" x2="6.9977" y2="6.827" gradientTransform="matrix(41.3225 147.0114 -145.7319 36.8034 1016.0522 -841.8439)">
		<stop  offset="0" style="stop-color:#FFEA00"/>
		<stop  offset="0.4945" style="stop-color:#FFEA00"/>
		<stop  offset="0.7088" style="stop-color:#FFDD00"/>
		<stop  offset="0.8681" style="stop-color:#FFCB05"/>
		<stop  offset="1" style="stop-color:#FFD400"/>
	</linearGradient>
	<path class="st12" d="M310.87,307.31c-9.62-2.14-12.82,3.92-13.89,6.06c-2.85-3.21-9.62-3.92-16.03,1.43
		c-2.14,1.78-3.92,3.92-5.7,6.41c-4.99,7.84-7.84,19.95-8.19,32.06c-0.71,26,6.05,39.9,13.89,41.32c8.55,1.43,12.11-3.56,13.89-7.12
		c0-0.36,0,0,0,0.36c0,9.97-0.36,17.1-2.85,21.02c-2.49,3.92-8.19,4.99-13.54,2.49c-3.21-1.78-6.06-4.28-7.48-6.41
		c0,0-3.21,3.21-4.63,4.99c-1.42,2.14-1.78,3.56,0,6.06c6.06,8.55,17.81,11.4,27.07,8.9c17.1-4.63,13.89-27.07,14.96-48.44
		c0.71-19.24,2.14-47.73,2.85-58.77c0.36-5.7,0.71-9.62,0.71-9.62C311.58,307.31,311.23,307.31,310.87,307.31z M294.13,369.64
		c-0.36,2.49-0.71,4.99-1.43,7.12c-5.34,12.47-11.04,1.07-10.69-22.8c0.36-13.89,3.92-24.58,7.12-27.78
		c2.14-2.14,6.41-4.28,7.12,2.85C296.27,336.16,294.13,366.08,294.13,369.64z"/>
	
		<linearGradient id="SVGID_7_" gradientUnits="userSpaceOnUse" x1="5.3068" y1="7.3308" x2="6.6874" y2="7.3308" gradientTransform="matrix(59.2249 108.1362 -108.1362 59.2249 555.286 -665.0447)">
		<stop  offset="0" style="stop-color:#FFEA00"/>
		<stop  offset="0.4945" style="stop-color:#FFEA00"/>
		<stop  offset="0.7088" style="stop-color:#FFDD00"/>
		<stop  offset="0.8681" style="stop-color:#FFCB05"/>
		<stop  offset="1" style="stop-color:#FFD400"/>
	</linearGradient>
	<path class="st13" d="M153.43,372.49c0-11.04-3.21-19.24-9.26-22.8c-9.26-5.34-20.66,0.36-26.36,4.27
		c-7.12,4.63-13.54,11.4-18.17,16.39c-0.36,0.36,1.78,0.71,1.07,14.96c-1.43,29.92-3.92,89.77-4.99,108.64
		c-0.36,8.19,1.78,6.77,11.04-0.71c3.21-2.49,6.05-4.99,6.05-4.99s0-7.48,0-9.97c0.36-8.9,1.43-24.22,2.14-35.98
		C135.26,429.13,153.43,403.48,153.43,372.49z M127.78,409.18c-3.56,8.9-8.19,13.89-12.11,17.1c0.36-7.48,1.78-47.38,2.14-55.57
		c3.21-3.56,7.13-6.06,9.97-6.41C136.68,364.66,135.26,391.02,127.78,409.18z"/>
	<path class="st14" d="M201.87,426.64l-0.36,0.36c-3.21,1.78-6.41,2.14-8.55,0.71c-1.42-1.07-2.85-4.28-2.49-8.55
		c1.07-17.81,3.21-66.97,3.21-66.97c0.71-0.71,1.78-1.07,2.85-2.14c-0.36,4.63-2.14,49.51-3.21,66.61c0,0.36,0,1.07,0,1.43v0.36
		c0,3.56,1.07,6.41,2.49,7.48C197.6,426.99,199.73,427.35,201.87,426.64z M191.54,332.24c-1.07-1.78-2.14-4.27-3.56-5.7
		c-2.85,0.71-4.63,0-4.63,0c2.14,1.78,3.21,4.63,4.99,7.12c1.78,2.85,5.34,7.48,11.75,6.06c1.43-0.36,2.49-0.71,3.56-1.78
		c-0.36,0-0.36,0-0.71,0.36C196.88,339.37,193.68,335.09,191.54,332.24z M182.99,358.25c0-0.36,0.36-0.36,0.36-0.36
		c0.36-0.36,0.71-0.71,1.07-1.07c-1.07,0.71-2.85,2.14-4.27,3.56c0,0.36-0.36,0.36-0.36,0.36c-0.71,1.07-1.42,2.14-2.14,3.2
		c-2.14,3.92-3.56,8.55-4.63,13.89c-0.71,2.49-0.71,4.63-0.71,4.63s-0.36,1.78-0.36,2.14C173.73,379.62,176.94,366.08,182.99,358.25
		z M158.41,449.79c1.07-19.95,1.78-39.9,2.85-59.84c0.36-3.92,0.71-11.4,0.71-17.45c-1.07,0.71-2.14,1.42-3.21,2.14
		c0,6.06-0.71,13.89-0.71,17.81c-1.07,21.02-2.14,41.68-3.21,62.69c1.07-0.71,2.14-1.43,2.85-2.14
		C158.06,453,158.41,450.5,158.41,449.79z M246.75,326.9c-3.56,1.43-6.41,6.06-8.91,11.04c-1.07,2.85-2.49,6.05-3.56,9.26v1.43
		C237.14,341.5,243.55,330.1,246.75,326.9z M249.25,400.28c-1.43-1.43-2.49-4.63-2.49-8.19v-0.36c0-0.36,0-1.07,0-1.43
		s0-0.71,0-1.07c0-2.14,0.36-4.28,0.36-6.77c0.36-8.91,1.07-20.66,1.43-31.35v-0.36c-1.07-2.14-5.34-0.36-6.06,0.36
		c0.71-0.36,1.43-0.36,1.78,0c0.36,0.36,0.71,0.71,1.07,1.43c-0.36,11.04-1.07,23.15-1.43,32.41c-0.36,2.49-0.36,4.63-0.36,6.77
		c0,0.36,0,0.71,0,1.07c-0.36,3.92,0.71,7.48,2.49,8.9c2.14,2.14,5.34,2.14,8.55,1.07c0.36-0.36,1.07-0.36,1.43-0.71
		C253.52,402.42,251.03,402.06,249.25,400.28z M220.04,411.68c0.71-10.33,2.14-42.39,2.85-55.92c0.36-1.78,0.36-6.41,0.71-11.4
		c0-0.71,0-1.07,0-1.78c0-2.14-0.36-4.28-1.07-5.34l-0.36-0.36c-1.78,1.07-2.85,1.43-2.85,1.78c1.43,1.43,1.43,4.99,1.07,8.19
		c-0.36,4.99-0.71,9.62-0.71,11.4c-0.71,16.03-3.21,59.13-3.21,59.13c1.07-0.36,2.14-1.07,2.85-1.43
		C219.68,415.6,219.68,413.46,220.04,411.68z M346.14,357.18c-0.71-5.7-0.71-12.82-0.36-18.17c1.07-14.96,6.41-29.21,14.96-34.91
		c-0.36,0.36-1.07,0.36-1.43,0.71c-11.04,5.7-16.74,24.58-16.74,42.75c0,8.19,0.71,13.89,2.14,19.95c1.07-0.71,2.49-1.78,2.85-2.14
		C347.2,365.37,346.49,361.81,346.14,357.18z M399.21,385.67c-4.27-1.42-9.97-4.99-13.89-8.55l-1.43-1.07
		c-0.71,0.71-1.07,1.07-1.78,1.43c0,0,1.07,1.07,1.43,1.07c3.92,3.21,8.9,6.41,12.82,7.84c4.63,1.43,8.19,1.43,11.4,0.36
		C405.27,387.1,402.42,386.74,399.21,385.67z M325.83,386.39c-4.27-2.85-4.63-8.9-4.63-14.25c0-0.36,0-0.36,0-0.71
		c0-3.21,0.36-6.06,0.36-8.19c1.42-26.36,2.85-52.36,3.92-78.72c0.36-4.63,1.43-7.84,3.56-9.62c-3.56,1.07-6.41,4.63-6.41,11.4
		c-1.43,26.36-2.85,52.36-3.92,78.72c0,4.63-2.14,17.46,4.27,22.08c2.85,2.14,6.77,2.49,9.97,1.07
		C330.46,388.52,327.97,387.81,325.83,386.39z M417.73,316.57c-4.27-2.14-7.84-0.71-10.33,1.78c0,0,1.43-1.43,3.92-1.43
		c3.21,0,6.06,2.49,6.41,2.85c0-0.36,0.36-1.07,0.71-2.49C418.45,316.93,418.09,316.57,417.73,316.57z M367.86,318.35
		c1.07,0.71,1.78,2.14,2.14,4.99c0.36,4.28,0.36,9.97-0.71,16.39c0,0-0.36,0.71-0.36,1.07c1.78-0.36,2.85-1.07,2.85-1.07
		c0-0.36,0.36-1.07,0.36-1.07c0.71-3.92,1.07-7.12,1.07-10.33c0-2.14,0-3.92-0.36-5.34c-0.36-2.49-1.07-4.28-2.14-4.99
		c-1.07-1.07-3.21-0.71-5.34,0.36C367.15,317.64,367.86,318.35,367.86,318.35z M361.81,384.61c-3.21-1.07-6.06-3.56-8.55-6.06
		c-2.14-2.14-3.21-4.27-3.56-4.63c-0.36,0.36-1.07,1.07-2.14,2.14c0.71,1.43,1.43,2.14,2.85,3.56c2.14,2.49,5.34,4.63,8.19,5.7
		c1.78,0.71,3.92,0.71,5.7,0.71c1.78,0,3.56-0.36,5.34-0.71c-0.71,0-1.78,0-2.49,0C365.73,385.32,363.59,385.32,361.81,384.61z
		 M406.34,370.36c0.71-1.43,1.07-3.21,1.07-4.63c0-2.85-0.71-5.7-1.78-8.55c-0.71-1.78-6.06-12.82-8.19-18.52
		c-2.85-6.77-4.27-11.75-4.27-16.39c0-8.19,2.14-12.11,4.99-15.32c0.36-0.36,1.78-1.43,1.78-1.78c-1.43,0.71-2.85,1.78-3.92,2.85
		c-6.41,6.41-7.48,16.03-2.85,28.5c4.63,12.11,14.25,26.36,9.97,35.62c-0.36,0.71-1.43,3.21-4.99,3.21
		C400.99,375.34,404.55,373.92,406.34,370.36z M290.92,410.25c4.63-2.85,5.7-6.77,6.41-13.89c0.36-2.85,0-13.18,0-12.82
		c-0.71,1.07-1.43,2.49-2.85,4.28c0,0.36,0,3.92,0,4.27c0,2.14,0,4.63-0.36,6.41c-0.36,3.92-1.07,8.55-3.56,11.4
		c-0.71,0.71-1.07,1.07-2.14,1.78c-0.36,0.36-1.07,0.71-1.78,0.71C288.43,411.68,289.5,410.97,290.92,410.25z M302.68,307.66
		c-1.07,0.36-1.78,1.07-2.85,1.43c-2.49,2.14-3.21,4.27-3.21,4.27s0.71,0.71,1.42,2.14C298.76,313.01,300.9,308.73,302.68,307.66z
		 M269.55,414.17c-1.07-1.43-1.43-2.49-1.07-3.56c0-0.36,0-0.36,0-0.36c0-1.07,0.36-1.78,1.07-2.85c0.36-0.71,1.07-1.43,1.78-2.14
		c-0.36-0.36-0.36-0.36-0.36-0.71c0,0-3.21,3.21-4.63,4.99c-1.42,2.14-1.78,3.56,0,6.05c6.06,8.55,17.81,11.4,27.07,8.91
		c0.71-0.36,1.43-0.36,2.14-0.71C286.65,425.57,275.25,422.72,269.55,414.17z M283.8,393.51c-7.48-1.43-13.89-13.89-13.89-37.05
		v-0.36c0-1.43,0-3.21,0-4.63c0.36-12.11,3.21-24.22,8.19-32.06c1.78-2.49,3.56-4.63,5.7-6.41c0,0,0,0,0.36,0
		c-1.07,0.71-2.14,1.07-3.21,2.14c-2.14,1.78-3.92,3.56-5.7,6.41c-4.99,7.84-7.84,19.95-8.19,32.06c-0.71,26,6.06,39.9,13.89,41.32
		c3.56,0.71,6.06,0,8.19-1.07C287.72,393.51,285.94,393.51,283.8,393.51z M298.76,328.68c-0.36-2.49-0.71-3.92-1.78-4.63
		c-2.14-1.42-5.7,0.36-6.77,1.43c1.07-0.71,1.43-0.71,2.14-0.71c0.36,0,0.71,0,1.07,0.36c1.07,0.36,2.14,1.78,2.14,4.63
		c0.36,6.41-1.43,36.33-1.78,40.25c-0.36,2.49-0.71,4.99-1.43,7.12c-0.36,0.71-0.71,1.78-1.07,2.14c-0.36,0.71-0.71,1.43-1.07,1.78
		s-0.71,0.71-1.07,0.71c1.78-0.36,4.28-2.14,6.06-5.34c0.36-0.36,0.36-1.07,0.71-1.43c0.71-2.14,1.43-4.63,1.43-7.12
		c0.36-3.21,1.78-27.78,1.78-37.4C298.76,329.75,298.76,329.04,298.76,328.68z M127.78,409.18c-1.78,4.27-3.56,7.84-5.7,10.69
		c-1.43,1.78-2.85,3.56-4.99,5.34c-0.36,0.36-1.07,0.71-1.43,1.07v0.71c4.28-2.85,11.04-9.97,14.96-19.59
		c7.12-18.52,8.55-44.53,0-44.53c-1.78,0-3.92,1.07-6.06,2.85c1.07-0.71,2.49-1.07,3.21-1.07
		C136.68,364.66,135.26,391.02,127.78,409.18z M98.21,492.54c1.07-19.24,3.56-78.72,4.99-108.65c0.71-14.25-1.07-14.6-1.07-14.96
		c4.27-4.99,10.33-11.04,17.1-15.67c-0.71,0.36-1.07,0.71-1.78,1.07c-7.12,4.63-13.54,11.4-18.17,16.39
		c-0.36,0.36,1.78,0.71,1.07,14.96c-1.43,29.92-3.92,89.77-4.99,108.65c0,2.49,0,3.92,0.36,4.99c1.07,2.14,4.99-1.07,7.48-2.85
		C98.57,498.95,97.86,498.95,98.21,492.54z"/>
</g>
</svg>
